<?xml version="1.0" standalone="no"?>
<!DOCTYPE svg PUBLIC "-//W3C//DTD SVG 20010904//EN"
 "http://www.w3.org/TR/2001/REC-SVG-20010904/DTD/svg10.dtd">
<svg version="1.0" xmlns="http://www.w3.org/2000/svg"
 width="300.000000pt" height="300.000000pt" viewBox="0 0 300.000000 300.000000"
 preserveAspectRatio="xMidYMid meet">
<metadata>
Created by potrace 1.14, written by Peter Selinger 2001-2017
</metadata>
<g transform="translate(0.000000,300.000000) scale(0.100000,-0.100000)"
fill="#000000" stroke="none">
<path d="M1341 2112 c-5 -9 -12 -16 -15 -14 -3 1 -6 -1 -7 -5 0 -5 -10 -13
-22 -20 -12 -7 -19 -12 -14 -13 4 0 -1 -8 -10 -18 -10 -11 -21 -17 -26 -15 -4
2 -11 -6 -16 -19 -6 -13 -10 -19 -10 -15 -1 4 -7 2 -15 -5 -8 -7 -12 -16 -9
-20 4 -7 -12 -12 -29 -9 -5 0 -7 -2 -6 -6 4 -12 -28 -54 -35 -47 -3 3 -10 -4
-17 -15 -6 -12 -15 -19 -21 -16 -5 4 -8 3 -7 -2 4 -12 -28 -54 -35 -47 -3 4
-12 -5 -18 -19 -7 -15 -16 -24 -21 -21 -5 3 -12 -3 -15 -15 -3 -12 -9 -21 -15
-21 -5 0 -18 -9 -30 -20 -12 -11 -18 -20 -13 -20 5 0 -2 -8 -15 -17 -14 -10
-28 -17 -33 -15 -4 1 -6 -1 -6 -5 3 -18 -2 -34 -8 -30 -5 3 -14 -1 -21 -9 -7
-8 -9 -14 -5 -15 4 0 -2 -4 -15 -10 -13 -5 -21 -13 -18 -17 3 -5 -6 -15 -19
-22 -14 -7 -25 -19 -25 -26 0 -6 -9 -14 -21 -17 -12 -3 -18 -10 -15 -15 3 -5
-6 -14 -21 -21 -14 -6 -23 -15 -19 -18 7 -7 -35 -39 -46 -35 -5 1 -7 -1 -7 -6
3 -19 -2 -33 -11 -27 -5 3 -10 1 -10 -5 0 -6 -5 -8 -10 -5 -6 4 -9 3 -8 -2 4
-12 -28 -54 -35 -47 -3 4 -12 -5 -18 -19 -7 -15 -16 -24 -21 -21 -5 3 -12 -3
-15 -15 -3 -12 -11 -21 -17 -21 -7 0 -19 -11 -26 -25 -7 -13 -17 -22 -22 -19
-4 3 -12 -5 -17 -18 -6 -13 -10 -19 -10 -15 -1 4 -7 2 -15 -5 -8 -7 -12 -16
-9 -20 4 -7 -12 -12 -29 -9 -5 0 -7 -2 -6 -7 4 -11 -28 -53 -35 -46 -3 4 -12
-5 -18 -19 -7 -15 -16 -24 -21 -21 -4 3 -12 -5 -17 -18 -6 -13 -10 -19 -10
-15 -1 4 -7 2 -15 -5 -8 -7 -12 -16 -9 -20 4 -7 -12 -12 -29 -9 -5 0 -7 -2 -6
-7 2 -4 -5 -18 -15 -32 -9 -13 -17 -20 -17 -15 0 5 -9 -1 -21 -13 -11 -12 -17
-27 -13 -34 4 -7 3 -8 -4 -4 -7 4 -12 2 -12 -4 0 -6 -4 -8 -10 -5 -5 3 -10 2
-10 -4 0 -5 29 -9 70 -7 41 1 72 -3 74 -9 3 -6 5 -6 5 0 1 6 25 9 58 7 76 -4
74 -4 107 1 16 3 33 12 38 21 5 9 13 14 19 11 5 -4 9 -2 9 4 0 6 181 191 403
413 221 221 401 407 399 413 -2 5 0 7 4 2 4 -4 23 7 41 25 18 17 33 27 33 20
0 -7 7 -12 15 -12 8 0 14 -3 13 -7 -3 -11 80 -93 95 -93 7 0 6 -4 -3 -10 -13
-8 -13 -10 1 -10 9 0 24 -11 35 -24 10 -14 21 -23 26 -20 4 3 8 0 8 -5 0 -14
37 -51 51 -51 5 0 8 -4 5 -8 -3 -5 4 -15 15 -22 19 -14 28 -47 9 -35 -5 3 -10
2 -10 -3 0 -14 -36 -52 -49 -52 -7 0 -10 -3 -8 -7 5 -10 -90 -103 -97 -95 -3
3 -6 1 -6 -5 0 -15 -155 -173 -170 -173 -6 0 -9 -3 -7 -7 5 -10 -50 -63 -57
-55 -3 3 -6 -1 -6 -8 0 -15 -67 -80 -74 -72 -4 3 -6 0 -6 -6 0 -6 -25 -36 -56
-66 -30 -31 -53 -60 -49 -66 3 -6 11 -7 17 -4 14 9 132 9 146 0 7 -4 12 -3 12
1 0 12 83 10 92 -2 5 -6 8 -6 8 2 0 13 18 12 39 -1 8 -5 12 -5 10 0 -4 7 63
81 76 84 8 2 63 60 57 60 -3 0 3 6 13 14 11 8 23 12 27 10 4 -3 5 3 1 13 -3
10 -3 15 0 12 9 -8 174 154 168 165 -2 5 3 6 13 3 9 -4 15 -3 11 2 -3 5 5 18
18 28 13 10 24 22 25 26 0 4 11 16 23 26 22 18 23 17 50 -10 16 -16 34 -29 40
-29 7 0 10 -3 7 -6 -7 -7 64 -80 75 -76 4 1 7 -3 7 -8 0 -15 47 -60 54 -53 3
4 6 1 6 -5 0 -15 37 -52 52 -52 6 0 9 -3 5 -6 -8 -8 18 -34 34 -34 7 0 10 -3
6 -6 -8 -8 18 -34 35 -34 10 0 9 -3 -2 -10 -13 -8 -13 -10 1 -10 9 0 24 -9 33
-19 22 -24 124 -73 137 -66 5 4 9 2 9 -3 0 -5 18 -8 40 -8 22 1 40 -3 40 -9 0
-7 3 -7 8 0 11 16 46 19 36 3 -4 -7 2 -4 14 6 12 11 25 16 28 13 4 -3 16 -1
28 5 11 7 24 11 29 10 4 -1 7 3 7 9 0 5 4 8 9 5 5 -3 14 1 21 9 7 8 17 12 23
8 5 -3 8 -2 5 3 -3 5 3 17 14 27 10 9 18 15 18 13 0 -2 38 35 85 82 46 47 82
89 79 93 -3 5 2 9 10 9 16 0 20 11 17 39 -2 7 2 10 8 7 9 -6 27 30 23 47 -1 4
2 7 6 7 5 0 8 14 7 30 -1 17 1 30 5 30 4 0 7 7 7 15 0 8 -5 15 -10 15 -5 0 -4
7 4 16 7 9 9 18 3 22 -5 4 -9 21 -9 37 0 17 -8 44 -17 61 -10 17 -15 34 -11
37 3 4 0 7 -7 7 -7 0 -11 3 -7 6 3 4 -4 15 -16 25 -12 10 -18 18 -14 19 4 0
-3 11 -15 24 -13 13 -26 21 -30 19 -8 -4 -12 13 -8 32 1 6 -2 7 -6 3 -4 -4
-20 6 -36 22 -15 16 -28 27 -28 23 0 -4 -8 4 -17 17 -9 14 -23 29 -30 33 -7 5
-11 12 -8 18 4 5 -2 6 -12 2 -10 -3 -15 -3 -11 2 8 8 -28 45 -45 45 -5 0 -7 7
-3 15 3 8 2 14 -2 13 -14 -3 -42 14 -36 23 3 5 -5 13 -18 18 -13 6 -19 10 -15
10 10 1 -18 31 -30 33 -12 2 -32 32 -27 40 3 4 -2 5 -10 2 -9 -3 -17 2 -21 15
-3 12 -14 21 -22 21 -9 0 -13 3 -10 6 7 8 -31 44 -46 44 -5 0 -6 7 -3 16 3 8
2 12 -4 9 -6 -3 -13 1 -16 9 -3 9 -10 14 -14 11 -4 -3 -11 2 -14 11 -5 12 -18
3 -61 -40 -31 -31 -60 -56 -66 -56 -6 0 -8 -3 -6 -7 2 -5 -61 -72 -139 -150
-79 -78 -144 -139 -144 -135 -1 4 -7 -4 -15 -18 -8 -14 -14 -21 -15 -16 0 6
-6 2 -13 -8 -13 -17 -16 -16 -55 22 -23 23 -42 47 -42 53 0 7 -3 10 -6 7 -6
-7 -74 61 -74 75 0 4 -3 6 -7 4 -10 -5 -82 71 -75 78 3 3 0 5 -5 5 -15 0 -83
67 -76 74 4 3 2 6 -3 6 -12 0 -100 82 -97 91 1 3 -7 10 -17 17 -16 10 -21 9
-29 -6z m962 -354 c-2 -5 3 -8 11 -8 8 0 18 -9 21 -20 3 -11 10 -20 13 -20 4
0 34 -26 67 -57 33 -31 54 -53 46 -48 -10 5 -12 4 -7 -3 4 -7 13 -12 20 -12 7
0 19 -11 26 -25 7 -13 16 -22 20 -20 4 3 14 -3 21 -12 12 -14 12 -16 0 -8 -10
5 -12 4 -7 -3 4 -7 14 -12 22 -12 8 0 14 -7 14 -16 0 -8 5 -12 10 -9 6 3 10
-1 10 -10 0 -9 5 -13 10 -10 6 3 10 2 10 -3 0 -4 10 -19 23 -32 12 -14 21 -28
19 -32 -1 -5 3 -8 8 -8 12 0 9 -22 -5 -32 -6 -5 -6 -8 2 -8 8 0 7 -9 -3 -30
-9 -16 -20 -30 -25 -30 -5 0 -9 -7 -9 -16 0 -8 -4 -12 -10 -9 -5 3 -10 -1 -10
-9 0 -9 -6 -15 -12 -14 -7 2 -12 -3 -10 -9 1 -7 -5 -13 -14 -13 -8 0 -12 -4
-9 -10 6 -9 -7 -14 -27 -11 -4 0 -4 -7 -1 -16 4 -9 2 -14 -3 -11 -11 7 -35
-17 -27 -26 4 -3 -1 -6 -9 -6 -9 0 -18 -6 -20 -12 -3 -7 -23 -13 -49 -14 -32
-1 -49 4 -61 19 -10 11 -18 16 -18 12 0 -4 -11 4 -25 19 -14 15 -25 32 -25 38
0 6 -3 9 -6 6 -7 -7 -74 62 -74 76 0 5 -3 7 -6 3 -7 -7 -74 61 -74 76 0 5 -2
8 -5 5 -7 -6 -83 65 -79 73 2 3 -8 12 -21 19 -27 14 -42 43 -26 48 6 2 11 11
11 20 0 8 2 13 5 10 8 -8 91 76 86 86 -2 5 3 6 13 3 9 -4 15 -3 12 1 -2 4 2
16 10 27 8 10 14 16 14 13 0 -4 15 8 32 25 18 18 31 35 30 40 -1 4 2 7 7 7 4
0 20 11 35 25 22 20 30 23 40 12 8 -6 12 -15 9 -19z"/>
<path d="M2009 1873 c-13 -16 -12 -17 4 -4 9 7 17 15 17 17 0 8 -8 3 -21 -13z"/>
</g>
</svg>
