<?xml version="1.0" standalone="no"?>
<!DOCTYPE svg PUBLIC "-//W3C//DTD SVG 20010904//EN"
 "http://www.w3.org/TR/2001/REC-SVG-20010904/DTD/svg10.dtd">
<svg version="1.0" xmlns="http://www.w3.org/2000/svg"
 width="512.000000pt" height="512.000000pt" viewBox="0 0 512.000000 512.000000"
 preserveAspectRatio="xMidYMid meet">
<metadata>
Created by potrace 1.14, written by Peter Selinger 2001-2017
</metadata>
<g transform="translate(0.000000,512.000000) scale(0.100000,-0.100000)"
fill="#000000" stroke="none">
<path d="M1916 4834 c-141 -34 -259 -142 -308 -282 -16 -47 -23 -93 -28 -207
0 -7 -52 -11 -143 -12 -96 -1 -164 -6 -208 -17 -173 -44 -321 -166 -397 -326
-24 -50 -52 -152 -52 -187 0 -13 -4 -24 -10 -24 -5 -1 -13 -2 -17 -3 -5 -1
-24 -6 -43 -10 -122 -29 -237 -137 -280 -264 -19 -58 -21 -86 -21 -312 l-1
-249 -31 -7 c-128 -28 -225 -119 -262 -247 -14 -49 -16 -105 -13 -390 l3 -332
33 -67 c22 -45 48 -80 79 -105 25 -21 60 -53 77 -72 17 -18 50 -54 74 -78 l42
-46 0 -83 c0 -144 55 -262 157 -340 23 -18 62 -56 86 -86 24 -29 69 -71 100
-93 36 -25 71 -62 96 -101 21 -34 56 -74 77 -90 21 -16 52 -44 69 -63 162
-181 212 -202 477 -203 l177 -1 53 -38 c65 -48 62 -45 98 -95 38 -55 90 -94
153 -115 45 -15 93 -18 340 -19 185 0 294 3 307 10 17 9 20 21 20 86 0 65 2
75 16 70 9 -3 42 -6 75 -6 l59 0 0 -68 c0 -40 5 -73 12 -80 19 -19 269 -16
315 3 92 39 106 72 109 265 1 85 2 158 3 161 1 4 17 9 37 12 82 14 249 76 390
148 l151 76 94 -94 c114 -114 140 -134 186 -140 82 -11 96 -2 281 180 217 214
232 233 232 302 0 65 -14 87 -143 218 l-96 98 29 48 c17 26 30 52 30 56 0 4 8
19 18 33 38 56 117 264 151 398 l11 40 157 0 c178 1 202 8 250 71 l28 36 0
287 0 287 -28 36 c-30 39 -74 67 -106 67 -14 0 -21 9 -26 33 -4 17 -18 47 -32
65 -39 52 -75 65 -187 66 l-100 1 -22 60 c-28 80 -106 245 -144 307 l-31 49
102 102 c56 56 110 116 120 132 23 37 25 105 4 149 -20 42 -532 552 -568 565
-38 15 -88 14 -126 -2 -17 -7 -80 -62 -140 -120 l-109 -108 -53 31 c-101 60
-293 148 -336 154 -23 4 -25 14 -28 114 -3 104 -14 140 -57 178 -24 23 -62 39
-100 43 -6 0 -9 4 -5 7 8 8 -19 73 -41 98 -38 43 -90 56 -225 56 -71 0 -137
-5 -148 -10 -16 -9 -19 -22 -19 -86 0 -65 -2 -75 -16 -70 -9 3 -42 6 -75 6
l-59 0 0 70 c0 58 -3 71 -19 80 -31 16 -453 11 -525 -6z m782 -1199 c32 -2 60
-4 65 -4 4 -1 7 -30 7 -65 0 -43 5 -67 15 -76 8 -6 47 -14 87 -16 40 -2 84 -6
98 -9 14 -3 37 -8 51 -10 102 -19 268 -91 353 -155 63 -47 84 -70 129 -145
162 -267 187 -610 65 -903 -37 -88 -126 -225 -195 -297 -131 -139 -316 -244
-498 -285 -80 -18 -89 -20 -163 -24 -39 -2 -76 -7 -82 -11 -7 -4 -10 303 -10
1005 0 730 3 1009 11 1004 6 -3 36 -8 67 -9z"/>
</g>
</svg>
